<svg id="Capa_1" enable-background="new 0 0 512 512" viewBox="0 0 512 512" xmlns="http://www.w3.org/2000/svg"><g><g><path d="m49.063 446.571c0 4.142 3.358 7.5 7.5 7.5h66.603c4.142 0 7.5-3.358 7.5-7.5s-3.358-7.5-7.5-7.5h-66.603c-4.142 0-7.5 3.358-7.5 7.5z"/><path d="m89.742 217.316h40.824c4.142 0 7.5-3.358 7.5-7.5s-3.358-7.5-7.5-7.5h-40.824c-4.142 0-7.5 3.358-7.5 7.5s3.358 7.5 7.5 7.5z"/><path d="m89.742 257.277h40.824c4.142 0 7.5-3.358 7.5-7.5s-3.358-7.5-7.5-7.5h-40.824c-4.142 0-7.5 3.358-7.5 7.5s3.358 7.5 7.5 7.5z"/><path d="m89.742 297.239h40.824c4.142 0 7.5-3.358 7.5-7.5s-3.358-7.5-7.5-7.5h-40.824c-4.142 0-7.5 3.358-7.5 7.5s3.358 7.5 7.5 7.5z"/><path d="m49.162 217.316h4.285c4.142 0 7.5-3.358 7.5-7.5s-3.358-7.5-7.5-7.5h-4.285c-4.142 0-7.5 3.358-7.5 7.5s3.358 7.5 7.5 7.5z"/><path d="m49.162 257.277h4.285c4.142 0 7.5-3.358 7.5-7.5s-3.358-7.5-7.5-7.5h-4.285c-4.142 0-7.5 3.358-7.5 7.5s3.358 7.5 7.5 7.5z"/><path d="m49.162 297.239h4.285c4.142 0 7.5-3.358 7.5-7.5s-3.358-7.5-7.5-7.5h-4.285c-4.142 0-7.5 3.358-7.5 7.5s3.358 7.5 7.5 7.5z"/><path d="m499.839 106.841h-487.678c-4.142 0-7.5 3.358-7.5 7.5s3.358 7.5 7.5 7.5h487.678c4.143 0 7.5-3.358 7.5-7.5s-3.357-7.5-7.5-7.5z"/><g><path d="m84.339.002c-4.142 0-7.5 3.358-7.5 7.5v58.759c0 4.142 3.358 7.5 7.5 7.5s7.5-3.358 7.5-7.5v-58.759c0-4.142-3.358-7.5-7.5-7.5z"/><path d="m52.99.002c-4.142 0-7.5 3.358-7.5 7.5v40.39c0 2.771-.79 6.348-6.948 9.449-1.896.955-3.955 1.419-6.297 1.419h-.025c-2.562-.003-4.788-.631-6.802-1.918-4.777-3.052-5.756-5.769-5.756-8.908v-40.432c0-4.142-3.358-7.5-7.5-7.5s-7.5 3.358-7.5 7.5v40.433c0 8.923 4.266 16.173 12.68 21.549 4.431 2.831 9.431 4.27 14.858 4.277h.045c4.675 0 9.064-1.017 13.045-3.022 12.563-6.327 15.2-15.917 15.2-22.847v-40.39c0-4.142-3.358-7.5-7.5-7.5z"/><path d="m271.343 34.797 16.186-22.976c2.386-3.386 1.575-8.065-1.812-10.451-3.389-2.386-8.066-1.573-10.45 1.812l-13.091 18.583-13.07-18.579c-2.384-3.388-7.062-4.201-10.45-1.819-3.388 2.383-4.202 7.062-1.819 10.45l16.162 22.974-19.126 27.15c-2.385 3.386-1.574 8.065 1.812 10.451 1.313.925 2.82 1.369 4.313 1.369 2.357 0 4.677-1.108 6.138-3.181l16.031-22.757 16.006 22.753c1.46 2.076 3.781 3.185 6.141 3.185 1.49 0 2.996-.443 4.309-1.366 3.388-2.383 4.202-7.062 1.818-10.45z"/><path d="m216.243.002c-4.142 0-7.5 3.358-7.5 7.5v40.39c0 2.771-.79 6.348-6.948 9.449-1.896.955-3.955 1.419-6.297 1.419h-.025c-2.563-.003-4.788-.63-6.803-1.918-4.777-3.052-5.756-5.769-5.756-8.908v-40.432c0-4.142-3.358-7.5-7.5-7.5s-7.5 3.358-7.5 7.5v40.433c0 8.923 4.267 16.173 12.68 21.548 4.431 2.832 9.43 4.271 14.859 4.278h.045c4.675 0 9.064-1.017 13.045-3.022 12.563-6.327 15.201-15.916 15.201-22.846v-40.391c-.001-4.142-3.359-7.5-7.501-7.5z"/><path d="m146.387.594c-3.814-1.613-8.215.172-9.829 3.987l-24.847 58.759c-1.613 3.815.171 8.215 3.987 9.829.954.403 1.943.594 2.917.594 2.923 0 5.701-1.72 6.911-4.581l24.848-58.759c1.613-3.815-.172-8.216-3.987-9.829z"/><path d="m447.554 15.202h52.285c4.143 0 7.5-3.358 7.5-7.5s-3.357-7.5-7.5-7.5h-52.285c-4.143 0-7.5 3.358-7.5 7.5s3.357 7.5 7.5 7.5z"/><path d="m499.839 29.381h-52.285c-4.143 0-7.5 3.358-7.5 7.5s3.357 7.5 7.5 7.5h52.285c4.143 0 7.5-3.358 7.5-7.5s-3.357-7.5-7.5-7.5z"/><path d="m499.839 58.56h-52.285c-4.143 0-7.5 3.358-7.5 7.5s3.357 7.5 7.5 7.5h52.285c4.143 0 7.5-3.358 7.5-7.5s-3.357-7.5-7.5-7.5z"/></g><path d="m479.839 155.107h-245.65c-15.164 0-27.5 12.336-27.5 27.5v301.893c0 15.164 12.336 27.5 27.5 27.5h245.65c15.163 0 27.5-12.336 27.5-27.5v-301.893c0-15.163-12.337-27.5-27.5-27.5zm12.5 329.393c0 6.893-5.607 12.5-12.5 12.5h-245.65c-6.893 0-12.5-5.607-12.5-12.5v-301.893c0-6.893 5.607-12.5 12.5-12.5h245.65c6.893 0 12.5 5.607 12.5 12.5z"/><path d="m147.567 381.143h-59.567c-4.142 0-7.5 3.358-7.5 7.5s3.358 7.5 7.5 7.5h59.567c6.893 0 12.5 5.607 12.5 12.5v75.857c0 6.893-5.607 12.5-12.5 12.5h-115.406c-6.893 0-12.5-5.607-12.5-12.5v-75.857c0-6.893 5.607-12.5 12.5-12.5h20.839c4.142 0 7.5-3.358 7.5-7.5s-3.358-7.5-7.5-7.5h-20.839c-15.164 0-27.5 12.336-27.5 27.5v75.857c0 15.164 12.336 27.5 27.5 27.5h115.406c15.164 0 27.5-12.336 27.5-27.5v-75.857c0-15.164-12.336-27.5-27.5-27.5z"/><path d="m147.567 155.107h-115.406c-15.164 0-27.5 12.336-27.5 27.5v32.604c0 4.142 3.358 7.5 7.5 7.5s7.5-3.358 7.5-7.5v-32.604c0-6.893 5.607-12.5 12.5-12.5h115.406c6.893 0 12.5 5.607 12.5 12.5v134.341c0 6.893-5.607 12.5-12.5 12.5h-115.406c-6.893 0-12.5-5.607-12.5-12.5v-66.737c0-4.142-3.358-7.5-7.5-7.5s-7.5 3.358-7.5 7.5v66.737c0 15.164 12.336 27.5 27.5 27.5h115.406c15.164 0 27.5-12.336 27.5-27.5v-134.341c0-15.163-12.336-27.5-27.5-27.5z"/><path d="m357.014 352.085c-29.241 0-54.659-19.776-61.811-48.091-1.014-4.016-5.095-6.449-9.108-5.435-4.016 1.014-6.449 5.092-5.435 9.108 8.836 34.984 40.233 59.418 76.354 59.418 43.425 0 78.754-35.329 78.754-78.754s-35.329-78.754-78.754-78.754c-36.12 0-67.518 24.433-76.354 59.417-1.015 4.016 1.419 8.094 5.435 9.108 4.019 1.015 8.095-1.418 9.108-5.435 7.151-28.315 32.569-48.09 61.811-48.09 35.154 0 63.754 28.6 63.754 63.754s-28.6 63.754-63.754 63.754z"/><path d="m422.137 397.836h-130.245c-17.193 0-31.181 13.988-31.181 31.181s13.987 31.181 31.181 31.181h130.245c17.193 0 31.181-13.988 31.181-31.181s-13.988-31.181-31.181-31.181zm0 47.362h-130.245c-8.922 0-16.181-7.259-16.181-16.181s7.259-16.181 16.181-16.181h130.245c8.922 0 16.181 7.259 16.181 16.181s-7.259 16.181-16.181 16.181z"/></g></g><g/><g/><g/><g/><g/><g/><g/><g/><g/><g/><g/><g/><g/><g/><g/></svg>